{
  "accessors": [
    {
      "bufferView": 1,
      "componentType": 5126,
      "count": 448,
      "max": [
        0.016487399116158485,
        0.00071315199602395296,
        -0.075766101479530334
      ],
      "min": [
        0.0096240602433681488,
        -0.00075132399797439575,
        -0.075834698975086212
      ],
      "type": "VEC3"
    },
    {
      "bufferView": 1,
      "byteOffset": 5376,
      "componentType": 5126,
      "count": 448,
      "max": [
        0.99877190589904785,
        0.99999946355819702,
        1
      ],
      "min": [
        -0.99873292446136475,
        -0.99999946355819702,
        -1
      ],
      "type": "VEC3"
    },
    {
      "bufferView": 0,
      "componentType": 5125,
      "count": 1344,
      "max": [
        447
      ],
      "min": [
        0
      ],
      "type": "SCALAR"
    },
    {
      "bufferView": 1,
      "byteOffset": 10752,
      "componentType": 5126,
      "count": 176,
      "max": [
        0.05052889883518219,
        -0.0040640002116560936,
        0.073297701776027679
      ],
      "min": [
        -0.024439400061964989,
        -0.0043179998174309731,
        -0.071167796850204468
      ],
      "type": "VEC3"
    },
    {
      "bufferView": 1,
      "byteOffset": 12864,
      "componentType": 5126,
      "count": 176,
      "max": [
        0.99999988079071045,
        1,
        0.99999988079071045
      ],
      "min": [
        -0.99999988079071045,
        -1,
        -0.99999988079071045
      ],
      "type": "VEC3"
    },
    {
      "bufferView": 0,
      "byteOffset": 5376,
      "componentType": 5125,
      "count": 516,
      "max": [
        175
      ],
      "min": [
        0
      ],
      "type": "SCALAR"
    },
    {
      "bufferView": 1,
      "byteOffset": 14976,
      "componentType": 5126,
      "count": 432,
      "max": [
        0.052587199956178665,
        -0.0040640002116560936,
        0.075355999171733856
      ],
      "min": [
        -0.026497699320316315,
        -0.0043179998174309731,
        -0.073226101696491241
      ],
      "type": "VEC3"
    },
    {
      "bufferView": 1,
      "byteOffset": 20160,
      "componentType": 5126,
      "count": 432,
      "max": [
        0.99999988079071045,
        1,
        1
      ],
      "min": [
        -0.99999988079071045,
        -1,
        -0.99999988079071045
      ],
      "type": "VEC3"
    },
    {
      "bufferView": 0,
      "byteOffset": 7440,
      "componentType": 5125,
      "count": 1284,
      "max": [
        431
      ],
      "min": [
        0
      ],
      "type": "SCALAR"
    },
    {
      "bufferView": 1,
      "byteOffset": 25344,
      "componentType": 5126,
      "count": 272,
      "max": [
        0.041498098522424698,
        0.0054584601894021034,
        0.064353398978710175
      ],
      "min": [
        0.037261098623275757,
        0.0040640002116560936,
        0.060116201639175415
      ],
      "type": "VEC3"
    },
    {
      "bufferView": 1,
      "byteOffset": 28608,
      "componentType": 5126,
      "count": 272,
      "max": [
        0.99988704919815063,
        1,
        0.99987697601318359
      ],
      "min": [
        -0.9998820424079895,
        -1,
        -0.99987697601318359
      ],
      "type": "VEC3"
    },
    {
      "bufferView": 0,
      "byteOffset": 12576,
      "componentType": 5125,
      "count": 804,
      "max": [
        271
      ],
      "min": [
        0
      ],
      "type": "SCALAR"
    },
    {
      "bufferView": 1,
      "byteOffset": 31872,
      "componentType": 5126,
      "count": 1988,
      "max": [
        0.05039609968662262,
        0.0054355999454855919,
        0.073164902627468109
      ],
      "min": [
        0.028536200523376465,
        0.0040640002116560936,
        0.051186401396989822
      ],
      "type": "VEC3"
    },
    {
      "bufferView": 1,
      "byteOffset": 55728,
      "componentType": 5126,
      "count": 1988,
      "max": [
        0.99999988079071045,
        1,
        1
      ],
      "min": [
        -0.99999994039535522,
        -1,
        -1
      ],
      "type": "VEC3"
    },
    {
      "bufferView": 0,
      "byteOffset": 15792,
      "componentType": 5125,
      "count": 7932,
      "max": [
        1987
      ],
      "min": [
        0
      ],
      "type": "SCALAR"
    },
    {
      "bufferView": 1,
      "byteOffset": 79584,
      "componentType": 5126,
      "count": 1088,
      "max": [
        0.049327600747346878,
        0.0056388000957667828,
        0.072035498917102814
      ],
      "min": [
        0.029492799192667007,
        0.0040640002116560936,
        0.052328899502754211
      ],
      "type": "VEC3"
    },
    {
      "bufferView": 1,
      "byteOffset": 92640,
      "componentType": 5126,
      "count": 1088,
      "max": [
        0.99988675117492676,
        1,
        0.99987643957138062
      ],
      "min": [
        -0.99988687038421631,
        -1,
        -0.99987512826919556
      ],
      "type": "VEC3"
    },
    {
      "bufferView": 0,
      "byteOffset": 47520,
      "componentType": 5125,
      "count": 3216,
      "max": [
        1087
      ],
      "min": [
        0
      ],
      "type": "SCALAR"
    },
    {
      "bufferView": 1,
      "byteOffset": 105696,
      "componentType": 5126,
      "count": 2276,
      "max": [
        0.047655001282691956,
        0.0052069998346269131,
        0.07051510363817215
      ],
      "min": [
        0.031016699969768524,
        0.0040640002116560936,
        0.053925298154354095
      ],
      "type": "VEC3"
    },
    {
      "bufferView": 1,
      "byteOffset": 133008,
      "componentType": 5126,
      "count": 2276,
      "max": [
        0.98165619373321533,
        0.99998950958251953,
        0.9845585823059082
      ],
      "min": [
        -0.98161840438842773,
        -1,
        -0.98455864191055298
      ],
      "type": "VEC3"
    },
    {
      "bufferView": 0,
      "byteOffset": 60384,
      "componentType": 5125,
      "count": 11976,
      "max": [
        2275
      ],
      "min": [
        0
      ],
      "type": "SCALAR"
    },
    {
      "bufferView": 1,
      "byteOffset": 160320,
      "componentType": 5126,
      "count": 2692,
      "max": [
        0.049943000078201294,
        0.0058419997803866863,
        0.072650901973247528
      ],
      "min": [
        0.028983099386096001,
        0.0040640002116560936,
        0.051819100975990295
      ],
      "type": "VEC3"
    },
    {
      "bufferView": 1,
      "byteOffset": 192624,
      "componentType": 5126,
      "count": 2692,
      "max": [
        0.99999946355819702,
        1,
        1
      ],
      "min": [
        -0.99999940395355225,
        -1,
        -1
      ],
      "type": "VEC3"
    },
    {
      "bufferView": 0,
      "byteOffset": 108288,
      "componentType": 5125,
      "count": 9840,
      "max": [
        2691
      ],
      "min": [
        0
      ],
      "type": "SCALAR"
    },
    {
      "bufferView": 1,
      "byteOffset": 224928,
      "componentType": 5126,
      "count": 5920,
      "max": [
        0.055762201547622681,
        0.0054609999060630798,
        0.075355999171733856
      ],
      "min": [
        -0.02967270091176033,
        -0.0040640002116560936,
        -0.0016888499958440661
      ],
      "type": "VEC3"
    },
    {
      "bufferView": 1,
      "byteOffset": 295968,
      "componentType": 5126,
      "count": 5920,
      "max": [
        1,
        1,
        1
      ],
      "min": [
        -1,
        -1,
        -1
      ],
      "type": "VEC3"
    },
    {
      "bufferView": 0,
      "byteOffset": 147648,
      "componentType": 5125,
      "count": 22716,
      "max": [
        5919
      ],
      "min": [
        0
      ],
      "type": "SCALAR"
    },
    {
      "bufferView": 1,
      "byteOffset": 367008,
      "componentType": 5126,
      "count": 3266,
      "max": [
        0.052587199956178665,
        0.0040640002116560936,
        0.075355999171733856
      ],
      "min": [
        -0.026497699320316315,
        0.0033019999973475933,
        -0.073226101696491241
      ],
      "type": "VEC3"
    },
    {
      "bufferView": 1,
      "byteOffset": 406200,
      "componentType": 5126,
      "count": 3266,
      "max": [
        1,
        1,
        1
      ],
      "min": [
        -1,
        -1,
        -1
      ],
      "type": "VEC3"
    },
    {
      "bufferView": 0,
      "byteOffset": 238512,
      "componentType": 5125,
      "count": 9834,
      "max": [
        3265
      ],
      "min": [
        0
      ],
      "type": "SCALAR"
    },
    {
      "bufferView": 1,
      "byteOffset": 445392,
      "componentType": 5126,
      "count": 51009,
      "max": [
        0.055127199739217758,
        0.0040640002116560936,
        0.077895998954772949
      ],
      "min": [
        -0.029037699103355408,
        -0.0040640002116560936,
        -0.075766101479530334
      ],
      "type": "VEC3"
    },
    {
      "bufferView": 1,
      "byteOffset": 1057500,
      "componentType": 5126,
      "count": 51009,
      "max": [
        1,
        1,
        1
      ],
      "min": [
        -1,
        -1,
        -1
      ],
      "type": "VEC3"
    },
    {
      "bufferView": 0,
      "byteOffset": 277848,
      "componentType": 5125,
      "count": 157287,
      "max": [
        51008
      ],
      "min": [
        0
      ],
      "type": "SCALAR"
    }
  ],
  "asset": {
    "extras": {
      "author": "Micah Sturtevant (https://sketchfab.com/micahs)",
      "license": "CC-BY-4.0 (http://creativecommons.org/licenses/by/4.0/)",
      "source": "https://sketchfab.com/3d-models/iphone-12-pro-4e17d4ba523a4d37a801dea3971df1e0",
      "title": "iPhone 12 Pro"
    },
    "generator": "Sketchfab-8.55.0",
    "version": "2.0"
  },
  "bufferViews": [
    {
      "buffer": 0,
      "byteLength": 906996,
      "byteOffset": 0,
      "name": "floatBufferViews",
      "target": 34963
    },
    {
      "buffer": 0,
      "byteLength": 1669608,
      "byteOffset": 906996,
      "byteStride": 12,
      "name": "floatBufferViews",
      "target": 34962
    }
  ],
  "buffers": [
    {
      "byteLength": 2576604,
      "uri": "scene.bin"
    }
  ],
  "extensionsRequired": [
    "KHR_materials_pbrSpecularGlossiness"
  ],
  "extensionsUsed": [
    "KHR_materials_pbrSpecularGlossiness"
  ],
  "materials": [
    {
      "doubleSided": true,
      "extensions": {
        "KHR_materials_pbrSpecularGlossiness": {
          "diffuseFactor": [
            0,
            0,
            0,
            1
          ],
          "glossinessFactor": 0.40000000000000002,
          "specularFactor": [
            0,
            0,
            0
          ]
        }
      },
      "name": "Material0_7"
    },
    {
      "doubleSided": true,
      "extensions": {
        "KHR_materials_pbrSpecularGlossiness": {
          "diffuseFactor": [
            0.156863,
            0.15294099999999999,
            0.15294099999999999,
            1
          ],
          "glossinessFactor": 0.40000000000000002,
          "specularFactor": [
            0,
            0,
            0
          ]
        }
      },
      "name": "Material0_3"
    },
    {
      "doubleSided": true,
      "extensions": {
        "KHR_materials_pbrSpecularGlossiness": {
          "diffuseFactor": [
            0.972549,
            0.52941199999999999,
            0.0039215700000000001,
            1
          ],
          "glossinessFactor": 0.40000000000000002,
          "specularFactor": [
            0,
            0,
            0
          ]
        }
      },
      "name": "Material0"
    },
    {
      "doubleSided": true,
      "extensions": {
        "KHR_materials_pbrSpecularGlossiness": {
          "diffuseFactor": [
            0.34509800000000002,
            0.34509800000000002,
            0.34509800000000002,
            1
          ],
          "glossinessFactor": 0.40000000000000002,
          "specularFactor": [
            0,
            0,
            0
          ]
        }
      },
      "name": "Material0_8"
    },
    {
      "doubleSided": true,
      "extensions": {
        "KHR_materials_pbrSpecularGlossiness": {
          "diffuseFactor": [
            0.28235300000000002,
            0.258824,
            0.258824,
            1
          ],
          "glossinessFactor": 0.40000000000000002,
          "specularFactor": [
            0,
            0,
            0
          ]
        }
      },
      "name": "Material0_0"
    },
    {
      "doubleSided": true,
      "extensions": {
        "KHR_materials_pbrSpecularGlossiness": {
          "diffuseFactor": [
            0.082352900000000007,
            0.082352900000000007,
            0.082352900000000007,
            1
          ],
          "glossinessFactor": 0.40000000000000002,
          "specularFactor": [
            0,
            0,
            0
          ]
        }
      },
      "name": "Material0_1"
    },
    {
      "doubleSided": true,
      "extensions": {
        "KHR_materials_pbrSpecularGlossiness": {
          "diffuseFactor": [
            0.95686300000000002,
            0.94509799999999999,
            0.94509799999999999,
            1
          ],
          "glossinessFactor": 0.40000000000000002,
          "specularFactor": [
            0,
            0,
            0
          ]
        }
      },
      "name": "Material0_2"
    },
    {
      "doubleSided": true,
      "extensions": {
        "KHR_materials_pbrSpecularGlossiness": {
          "diffuseFactor": [
            0,
            0,
            0.121569,
            1
          ],
          "glossinessFactor": 0.40000000000000002,
          "specularFactor": [
            0,
            0,
            0
          ]
        }
      },
      "name": "Material0_4"
    },
    {
      "doubleSided": true,
      "extensions": {
        "KHR_materials_pbrSpecularGlossiness": {
          "diffuseFactor": [
            0,
            0,
            0,
            1
          ],
          "glossinessFactor": 0.40000000000000002,
          "specularFactor": [
            0,
            0,
            0
          ]
        }
      },
      "name": "Material0_5"
    },
    {
      "doubleSided": true,
      "extensions": {
        "KHR_materials_pbrSpecularGlossiness": {
          "diffuseFactor": [
            0.121569,
            0.121569,
            0.121569,
            1
          ],
          "glossinessFactor": 0.40000000000000002,
          "specularFactor": [
            0,
            0,
            0
          ]
        }
      },
      "name": "Material0_6"
    }
  ],
  "meshes": [
    {
      "name": "Material0",
      "primitives": [
        {
          "attributes": {
            "NORMAL": 1,
            "POSITION": 0
          },
          "indices": 2,
          "material": 2,
          "mode": 4
        }
      ]
    },
    {
      "name": "Material0",
      "primitives": [
        {
          "attributes": {
            "NORMAL": 4,
            "POSITION": 3
          },
          "indices": 5,
          "material": 4,
          "mode": 4
        }
      ]
    },
    {
      "name": "Material0",
      "primitives": [
        {
          "attributes": {
            "NORMAL": 7,
            "POSITION": 6
          },
          "indices": 8,
          "material": 5,
          "mode": 4
        }
      ]
    },
    {
      "name": "Material0",
      "primitives": [
        {
          "attributes": {
            "NORMAL": 10,
            "POSITION": 9
          },
          "indices": 11,
          "material": 6,
          "mode": 4
        }
      ]
    },
    {
      "name": "Material0",
      "primitives": [
        {
          "attributes": {
            "NORMAL": 13,
            "POSITION": 12
          },
          "indices": 14,
          "material": 1,
          "mode": 4
        }
      ]
    },
    {
      "name": "Material0",
      "primitives": [
        {
          "attributes": {
            "NORMAL": 16,
            "POSITION": 15
          },
          "indices": 17,
          "material": 7,
          "mode": 4
        }
      ]
    },
    {
      "name": "Material0",
      "primitives": [
        {
          "attributes": {
            "NORMAL": 19,
            "POSITION": 18
          },
          "indices": 20,
          "material": 8,
          "mode": 4
        }
      ]
    },
    {
      "name": "Material0",
      "primitives": [
        {
          "attributes": {
            "NORMAL": 22,
            "POSITION": 21
          },
          "indices": 23,
          "material": 9,
          "mode": 4
        }
      ]
    },
    {
      "name": "Material0",
      "primitives": [
        {
          "attributes": {
            "NORMAL": 25,
            "POSITION": 24
          },
          "indices": 26,
          "material": 0,
          "mode": 4
        }
      ]
    },
    {
      "name": "Material0",
      "primitives": [
        {
          "attributes": {
            "NORMAL": 28,
            "POSITION": 27
          },
          "indices": 29,
          "material": 3,
          "mode": 4
        }
      ]
    },
    {
      "name": "Material0",
      "primitives": [
        {
          "attributes": {
            "NORMAL": 31,
            "POSITION": 30
          },
          "indices": 32,
          "material": 3,
          "mode": 4
        }
      ]
    }
  ],
  "nodes": [
    {
      "children": [
        1
      ],
      "name": "RootNode (gltf orientation matrix)",
      "rotation": [
        -0.70710678118654746,
        -0,
        -0,
        0.70710678118654757
      ]
    },
    {
      "children": [
        2
      ],
      "name": "RootNode (model correction matrix)"
    },
    {
      "children": [
        3
      ],
      "name": "Collada visual scene group"
    },
    {
      "children": [
        4,
        5,
        6,
        7,
        8,
        9,
        10,
        11,
        12,
        13,
        14
      ],
      "name": "5db7b70ae25f0d14d5630cc4"
    },
    {
      "mesh": 0,
      "name": "Material0"
    },
    {
      "mesh": 1,
      "name": "Material0"
    },
    {
      "mesh": 2,
      "name": "Material0"
    },
    {
      "mesh": 3,
      "name": "Material0"
    },
    {
      "mesh": 4,
      "name": "Material0"
    },
    {
      "mesh": 5,
      "name": "Material0"
    },
    {
      "mesh": 6,
      "name": "Material0"
    },
    {
      "mesh": 7,
      "name": "Material0"
    },
    {
      "mesh": 8,
      "name": "Material0"
    },
    {
      "mesh": 9,
      "name": "Material0"
    },
    {
      "mesh": 10,
      "name": "Material0"
    }
  ],
  "scene": 0,
  "scenes": [
    {
      "name": "OSG_Scene",
      "nodes": [
        0
      ]
    }
  ]
}

