<svg viewBox="0 0 256 256" xmlns="http://www.w3.org/2000/svg">
  <path fill-rule="evenodd" clip-rule="evenodd" d="M256 0H0V256H256V0ZM86.902 202.076L67.312 213.932L67.311 213.93C72.982 225.959 84.153 235.926 103.398 235.926C124.708 235.926 139.314 224.584 139.314 199.667V117.529H115.257V199.327C115.257 211.355 110.272 214.447 102.367 214.447C94.12 214.447 90.682 208.777 86.902 202.076ZM171.969 200.013L152.381 211.354L152.38 211.355C159.425 225.275 173.86 235.929 196.199 235.929C219.054 235.929 236.066 224.073 236.066 202.419C236.066 182.315 224.553 173.38 204.103 164.615L198.089 162.038C187.779 157.57 183.311 154.647 183.311 147.43C183.311 141.588 187.779 137.12 194.825 137.12C201.699 137.12 206.165 140.041 210.29 147.43L229.022 135.4C221.118 121.481 210.12 116.153 194.826 116.153C173.345 116.153 159.598 129.901 159.598 147.945C159.598 167.535 171.111 176.815 188.468 184.202L194.481 186.782C205.479 191.592 212.009 194.514 212.009 202.762C212.009 209.636 205.653 214.62 195.684 214.62C183.828 214.62 177.126 208.434 171.969 200.013Z" fill="#fff"/>
</svg>
